# xmcd
#
# Track frame offsets: 
#        150
#        16535
#        41773
#        63257
#        93878
#        116842
#        139131
#        160717
#        180675
#        207465
#
# Disc length: 3003 seconds
#
# Revision: 1
# Processed by: cddbd v1.5.2PL0 Copyright (c) Steve Scherf et al.
# Submitted via: ExactAudioCopy v1.0b3
#
DISCID=800bb90a
DTITLE=Michael Messer - Lucky Charms
DYEAR=2005
DGENRE=Blues
TTITLE0=Lucky Charms
TTITLE1=Take Me Back
TTITLE2=Sad Side Of The Note
TTITLE3=Sunflower River
TTITLE4=Knife Song
TTITLE5=Steve Cropper
TTITLE6=Havana Blues
TTITLE7=Son House
TTITLE8=Turning Blue
TTITLE9=Crackly Hums
EXTD=YEAR: 2005
EXTT0=
EXTT1=
EXTT2=
EXTT3=
EXTT4=
EXTT5=
EXTT6=
EXTT7=
EXTT8=
EXTT9=
PLAYORDER=
